<svg id="Layer_1" data-name="Layer 1" xmlns="http://www.w3.org/2000/svg" xmlns:xlink="http://www.w3.org/1999/xlink" viewBox="0 0 2560 1440"><defs><style>.cls-1{fill:url(#linear-gradient);}.cls-2,.cls-3,.cls-4,.cls-5{fill:none;stroke-miterlimit:10;stroke-width:5px;}.cls-2{stroke:red;}.cls-3{stroke:#ff0;}.cls-4{stroke:lime;}.cls-5{stroke:aqua;}</style><linearGradient id="linear-gradient" x1="1121.76" y1="-39.95" x2="2475.35" y2="917.1" gradientUnits="userSpaceOnUse"><stop offset="0" stop-color="#944bcd" stop-opacity="0.89"/><stop offset="0.22" stop-color="#8944c4" stop-opacity="0.9"/><stop offset="0.57" stop-color="#6d32ac" stop-opacity="0.94"/><stop offset="1" stop-color="#3e1484"/></linearGradient></defs><path class="cls-1" d="M1290.21,6.74S845.13,572.08,1407.27,402.28s-305.54,373.3-277.76,531,1009.21-607.8,1030.37-380-387.54,781.64-22.48,599.71S2560,1122.6,2560,1122.6V0H1294.29Z"/><polygon class="cls-2" points="1028.59 108.87 1031.82 180 1092.26 144.44 1028.59 108.87"/><polygon class="cls-3" points="1645.66 594.02 1611.18 646.87 1673.07 652.55 1645.66 594.02"/><polygon class="cls-4" points="2437.2 929.36 2448.88 953.03 2475 956.82 2456.1 975.25 2460.56 1001.26 2437.2 988.98 2413.84 1001.26 2418.3 975.25 2399.4 956.82 2425.52 953.03 2437.2 929.36"/><circle class="cls-5" cx="1620.68" cy="1210.67" r="40"/></svg>